<svg xmlns="http://www.w3.org/2000/svg" viewBox="0 0 50 50">
  <circle cx="25" cy="25" r="20" fill="#80ff00" />
  <path d="M10.5 28a9.5 9.5 0 1 1 7.794-14.5h-2.882a7 7 0 1 0-1.412 4h4.25a9.49 9.49 0 0 1 3.478.722l-1.724 1.724A2 2 0 1 0 20.5 23h7a2 2 0 1 0 .372-1.5h2.296a9.5 9.5 0 1 1-2.168 6.5h-4.544a2 2 0 1 0-.364 1.5h7a2 2 0 1 0 .372-1.5h2.454a9.5 9.5 0 1 1-2.853-6.5h-4.544a2 2 0 1 0-.364 1.5h7a2 2 0 1 0 .372-1.5h2.202A9.5 9.5 0 1 1 25.5 37v-2a7 7 0 0 0-7-7h-4.25a9.5 9.5 0 0 1-3.75-.722l1.724-1.724A2 2 0 1 0 10.5 28z" fill="#ffffff" />
</svg>
